<?xml version="1.0" encoding="UTF-8"?>
<svg id="Camada_1" data-name="Camada 1" xmlns="http://www.w3.org/2000/svg" viewBox="0 0 726.82 166.74">
  <defs>
    <style>
      .cls-1 {
        fill: #f0f0f0;
      }
    </style>
  </defs>
  <polygon class="cls-1" points="23.88 40.56 44.58 40.56 44.58 122.07 23.88 122.07 23.88 144.46 97.84 144.46 97.84 122.07 77.14 122.07 77.14 40.56 97.84 40.56 97.84 18.17 23.88 18.17 23.88 40.56"/>
  <polygon class="cls-1" points="195.31 90.51 149.26 18.17 110.33 18.17 110.33 144.46 140.18 144.46 140.18 57.78 193.79 144.46 225.16 144.46 225.16 18.17 195.31 18.17 195.31 90.51"/>
  <path class="cls-1" d="m520.76,18.07c-19.5,0-34.79,5.66-45.87,16.99-11.09,11.33-16.63,26.74-16.63,46.25s5.54,34.7,16.63,46.08c11.08,11.38,26.37,17.07,45.87,17.07s34.88-5.69,45.97-17.07c11.08-11.38,16.62-26.74,16.62-46.08s-5.56-34.92-16.7-46.25-26.43-16.99-45.88-16.99Zm27.88,80.88c-1.47,5.03-3.72,9.39-6.77,13.08-2.72,3.26-5.9,5.66-9.53,7.21-3.64,1.55-7.47,2.32-11.49,2.32s-7.85-.76-11.49-2.28c-3.64-1.52-6.82-3.88-9.53-7.09-2.72-3.2-4.9-7.34-6.56-12.42-1.66-5.08-2.49-11.23-2.49-18.46s.86-13.27,2.56-18.62c1.71-5.35,3.93-9.55,6.65-12.59,2.93-3.26,6.15-5.59,9.65-7.01,3.51-1.41,7.24-2.12,11.21-2.12s7.67.73,11.28,2.2c3.61,1.47,6.81,3.83,9.58,7.09,2.72,3.15,4.91,7.28,6.6,12.39,1.68,5.11,2.52,11.3,2.52,18.58,0,6.79-.73,12.7-2.19,17.72Z"/>
  <polygon class="cls-1" points="667.1 18.17 640.78 66.88 613.56 18.17 576.48 18.17 623.8 97.13 623.8 144.46 656.37 144.46 656.37 95.61 702.93 18.17 667.1 18.17"/>
  <rect class="cls-1" x="357.42" y="50.66" width="17.91" height="17.91"/>
  <rect class="cls-1" x="388.11" y="50.66" width="17.91" height="17.91"/>
  <rect class="cls-1" x="357.42" y="79.43" width="17.91" height="17.91"/>
  <rect class="cls-1" x="388.11" y="79.43" width="17.91" height="17.91"/>
  <path class="cls-1" d="m321.55,18.17h-.11v72.35l-46.06-72.35h-38.93v126.29h29.85V57.78l53.61,86.68h31.38V41.39h64.08v70.16h-15.38c-9.7,0-17.56,7.86-17.56,17.56v15.34h37.76c15.55,0,28.16-12.61,28.16-28.16v-5.81c.07-1.03.11-2.05.11-3.08V18.16h-126.9s0,0,0,0Z"/>
  <rect class="cls-1" x="357.42" y="111.55" width="17.91" height="32.9"/>
</svg>